<svg 
 xmlns="http://www.w3.org/2000/svg"
 xmlns:xlink="http://www.w3.org/1999/xlink"
 width="173px" height="33px">
<path fill-rule="evenodd"  fill="rgb(255, 255, 255)"
 d="M164.213,16.821 L164.213,2.655 L167.900,2.655 L167.900,13.502 L173.000,13.502 L173.000,16.821 L164.213,16.821 ZM158.290,15.060 L153.009,15.060 L152.203,16.821 L148.354,16.821 L148.354,16.315 L154.823,2.513 L156.516,2.513 L162.925,16.315 L162.925,16.821 L159.116,16.821 L158.290,15.060 ZM155.650,8.544 L154.198,11.964 L157.121,11.964 L155.650,8.544 ZM145.207,17.185 C144.099,17.185 143.212,16.477 143.212,15.344 C143.212,14.210 144.099,13.481 145.207,13.481 C146.336,13.481 147.202,14.210 147.202,15.344 C147.202,16.477 146.336,17.185 145.207,17.185 ZM141.837,29.330 C141.781,29.330 141.747,29.307 141.724,29.250 L141.207,28.120 L138.134,28.120 L137.616,29.250 C137.593,29.307 137.560,29.330 137.504,29.330 L136.940,29.330 C136.861,29.330 136.828,29.285 136.861,29.205 L138.516,25.588 C138.809,24.956 139.090,24.164 139.259,23.565 C139.271,23.497 139.315,23.475 139.372,23.475 L139.968,23.475 C140.025,23.475 140.069,23.497 140.081,23.565 C140.250,24.164 140.531,24.956 140.824,25.588 L142.479,29.205 C142.512,29.285 142.479,29.330 142.400,29.330 L141.837,29.330 ZM140.261,26.074 C140.036,25.554 139.833,25.001 139.754,24.650 C139.721,24.549 139.619,24.549 139.586,24.650 C139.507,25.001 139.315,25.543 139.080,26.074 L138.449,27.454 L140.891,27.454 L140.261,26.074 ZM130.683,16.295 L136.366,5.872 L131.187,5.872 L131.187,2.655 L141.768,2.655 L141.768,3.201 L136.104,13.523 L141.828,13.523 L141.828,16.821 L130.683,16.821 L130.683,16.295 ZM128.982,26.210 C129.961,26.470 130.388,26.979 130.388,27.770 C130.388,28.821 129.533,29.442 128.080,29.442 C127.338,29.442 126.719,29.352 126.156,29.149 L125.830,29.035 C125.762,29.013 125.739,28.968 125.762,28.900 L125.931,28.459 C125.953,28.403 125.998,28.380 126.054,28.403 L126.381,28.515 C126.831,28.674 127.428,28.753 128.080,28.753 C129.071,28.753 129.656,28.391 129.656,27.770 C129.656,27.306 129.376,27.024 128.756,26.854 L127.236,26.447 C126.302,26.210 125.875,25.735 125.875,24.921 C125.875,23.949 126.674,23.362 128.036,23.362 C128.610,23.362 129.094,23.430 129.521,23.554 L130.017,23.701 C130.084,23.723 130.107,23.769 130.084,23.837 L129.949,24.277 C129.927,24.334 129.882,24.357 129.826,24.345 L129.330,24.209 C128.959,24.097 128.531,24.039 128.058,24.039 C127.135,24.039 126.606,24.402 126.606,24.933 C126.606,25.373 126.865,25.656 127.473,25.814 L128.982,26.210 ZM120.184,2.655 L128.991,2.655 L128.991,5.872 L123.872,5.872 L123.872,7.896 L128.589,7.896 L128.589,11.134 L123.872,11.134 L123.872,13.441 L129.173,13.441 L129.173,16.821 L120.184,16.821 L120.184,2.655 ZM122.238,23.587 L122.103,24.051 C122.092,24.119 122.047,24.142 121.991,24.142 L118.613,24.142 L118.613,26.210 L121.574,26.210 C121.642,26.210 121.676,26.244 121.676,26.312 L121.676,26.786 C121.676,26.854 121.642,26.888 121.574,26.888 L118.613,26.888 L118.613,29.228 C118.613,29.296 118.580,29.330 118.512,29.330 L117.983,29.330 C117.916,29.330 117.882,29.296 117.882,29.228 L117.882,23.576 C117.882,23.509 117.916,23.475 117.983,23.475 L122.148,23.475 C122.227,23.475 122.261,23.519 122.238,23.587 ZM111.581,17.003 C108.599,17.003 105.838,15.323 105.838,12.146 L105.838,2.655 L109.526,2.655 L109.526,12.065 C109.526,13.238 110.553,13.744 111.601,13.744 C112.589,13.744 113.637,13.238 113.637,12.065 L113.637,2.655 L117.285,2.655 L117.285,12.146 C117.285,15.323 114.544,17.003 111.581,17.003 ZM106.951,23.463 L107.570,23.463 C107.649,23.463 107.683,23.519 107.627,23.587 L106.073,25.758 C105.499,26.594 105.285,27.046 105.285,27.894 L105.285,29.228 C105.285,29.296 105.251,29.330 105.184,29.330 L104.666,29.330 C104.599,29.330 104.565,29.296 104.565,29.228 L104.565,27.894 C104.554,27.046 104.328,26.594 103.754,25.758 L102.201,23.587 C102.145,23.519 102.178,23.463 102.257,23.463 L102.876,23.463 C102.932,23.463 102.966,23.486 103.000,23.531 L104.317,25.317 C104.531,25.622 104.655,25.882 104.846,26.312 C104.880,26.402 104.948,26.402 104.981,26.312 C105.172,25.882 105.307,25.622 105.521,25.317 L106.827,23.531 C106.861,23.486 106.895,23.463 106.951,23.463 ZM97.033,17.003 C93.446,17.003 89.778,14.595 89.778,9.758 C89.778,4.901 93.446,2.472 97.033,2.472 C99.835,2.472 102.757,3.909 103.502,7.350 L99.915,7.350 C99.291,6.216 98.404,5.791 97.033,5.791 C94.756,5.791 93.506,7.593 93.506,9.737 C93.506,12.106 94.876,13.623 97.033,13.623 C98.484,13.623 99.411,13.259 100.077,11.903 L97.074,11.903 L97.074,8.787 L103.724,8.787 C103.825,10.163 103.805,11.518 103.341,12.895 C102.313,15.870 99.653,17.003 97.033,17.003 ZM91.597,28.244 C91.630,28.335 91.709,28.301 91.698,28.210 C91.642,27.916 91.630,27.578 91.630,27.204 L91.630,23.576 C91.630,23.509 91.664,23.475 91.732,23.475 L92.261,23.475 C92.329,23.475 92.362,23.509 92.362,23.576 L92.362,29.228 C92.362,29.296 92.329,29.330 92.261,29.330 L91.574,29.330 C91.518,29.330 91.485,29.307 91.462,29.250 C91.327,28.990 91.112,28.663 90.933,28.414 L88.468,25.136 C88.355,24.956 88.209,24.718 88.130,24.560 C88.085,24.481 88.006,24.514 88.017,24.594 C88.062,24.888 88.096,25.238 88.096,25.588 L88.096,29.228 C88.096,29.296 88.062,29.330 87.995,29.330 L87.466,29.330 C87.398,29.330 87.365,29.296 87.365,29.228 L87.365,23.576 C87.365,23.509 87.398,23.475 87.466,23.475 L88.141,23.475 C88.197,23.475 88.231,23.497 88.254,23.542 C88.389,23.814 88.591,24.142 88.771,24.390 L91.236,27.656 C91.371,27.849 91.529,28.098 91.597,28.244 ZM78.999,9.516 L78.999,16.821 L75.311,16.821 L75.311,2.594 L76.460,2.594 L83.816,9.576 L83.816,2.655 L87.504,2.655 L87.504,16.861 L86.416,16.861 L78.999,9.516 ZM76.096,27.419 C76.118,27.521 76.186,27.521 76.209,27.419 C76.254,27.239 76.377,26.944 76.479,26.719 L77.762,24.243 C77.874,24.039 77.976,23.779 78.032,23.565 C78.044,23.497 78.088,23.475 78.144,23.475 L79.000,23.475 C79.068,23.475 79.102,23.509 79.102,23.576 L79.102,29.228 C79.102,29.296 79.068,29.330 79.000,29.330 L78.471,29.330 C78.403,29.330 78.370,29.296 78.370,29.228 L78.370,25.939 C78.370,25.509 78.381,24.989 78.426,24.582 C78.438,24.469 78.358,24.446 78.314,24.549 C78.223,24.763 78.111,25.012 77.998,25.249 L76.782,27.611 C76.670,27.838 76.546,28.143 76.468,28.380 C76.456,28.437 76.411,28.459 76.354,28.459 L75.938,28.459 C75.882,28.459 75.837,28.437 75.826,28.380 C75.747,28.143 75.634,27.849 75.522,27.611 L74.295,25.249 C74.183,25.012 74.069,24.763 73.980,24.549 C73.934,24.435 73.845,24.469 73.867,24.582 C73.912,24.989 73.934,25.509 73.934,25.939 L73.934,29.228 C73.934,29.296 73.901,29.330 73.833,29.330 L73.304,29.330 C73.237,29.330 73.203,29.296 73.203,29.228 L73.203,23.576 C73.203,23.509 73.237,23.475 73.304,23.475 L74.160,23.475 C74.216,23.475 74.261,23.497 74.272,23.565 C74.340,23.779 74.441,24.039 74.542,24.243 L75.826,26.719 C75.916,26.944 76.039,27.239 76.096,27.419 ZM69.388,15.060 L64.107,15.060 L63.301,16.821 L59.452,16.821 L59.452,16.315 L65.921,2.513 L67.614,2.513 L74.023,16.315 L74.023,16.821 L70.214,16.821 L69.388,15.060 ZM66.748,8.544 L65.296,11.964 L68.219,11.964 L66.748,8.544 ZM61.405,23.362 C63.071,23.362 64.107,24.526 64.107,26.402 C64.107,28.267 63.071,29.442 61.405,29.442 C59.728,29.442 58.692,28.267 58.692,26.402 C58.692,24.526 59.728,23.362 61.405,23.362 ZM61.405,28.753 C62.620,28.753 63.375,27.871 63.375,26.402 C63.375,24.933 62.620,24.039 61.405,24.039 C60.167,24.039 59.424,24.933 59.424,26.402 C59.424,27.871 60.167,28.753 61.405,28.753 ZM54.497,10.284 L51.494,13.441 L51.071,13.441 L48.068,10.284 L48.068,16.821 L44.380,16.821 L44.380,2.614 L45.690,2.614 L51.292,8.746 L56.876,2.614 L58.186,2.614 L58.186,16.821 L54.497,16.821 L54.497,10.284 ZM46.298,23.565 C46.310,23.497 46.355,23.475 46.411,23.475 L47.007,23.475 C47.064,23.475 47.108,23.497 47.120,23.565 C47.289,24.164 47.570,24.956 47.863,25.588 L49.518,29.205 C49.551,29.285 49.518,29.330 49.439,29.330 L48.876,29.330 C48.819,29.330 48.786,29.307 48.763,29.250 L48.245,28.120 L45.173,28.120 L44.655,29.250 C44.632,29.307 44.599,29.330 44.542,29.330 L43.979,29.330 C43.900,29.330 43.867,29.285 43.900,29.205 L45.555,25.588 C45.848,24.956 46.129,24.164 46.298,23.565 ZM47.931,27.454 L47.300,26.074 C47.075,25.554 46.872,25.001 46.793,24.650 C46.760,24.549 46.658,24.549 46.625,24.650 C46.546,25.001 46.355,25.543 46.118,26.074 L45.488,27.454 L47.931,27.454 ZM33.643,19.307 C33.649,19.317 33.652,19.327 33.658,19.338 L33.626,19.279 C33.631,19.288 33.638,19.297 33.643,19.307 ZM31.958,21.049 C31.430,20.944 31.004,20.517 30.889,19.989 C30.833,19.730 30.852,19.483 30.925,19.261 C31.036,18.927 30.976,18.559 30.789,18.261 C30.270,17.432 29.784,16.649 29.229,15.799 C29.012,15.467 28.498,15.606 28.473,16.002 C28.324,18.390 28.366,20.346 28.750,22.924 C28.790,23.197 29.044,23.385 29.316,23.347 C29.724,23.290 30.030,23.712 29.852,24.084 L29.008,25.840 C28.849,26.173 28.404,26.236 28.160,25.960 L26.868,24.504 C26.594,24.195 26.774,23.705 27.181,23.647 C27.449,23.609 27.630,23.357 27.586,23.089 C27.264,21.105 27.212,19.119 27.284,17.185 C27.298,16.805 26.809,16.640 26.595,16.954 C25.541,18.503 24.920,19.788 24.531,20.641 C23.690,22.485 23.777,24.459 24.048,26.577 C24.094,26.933 24.143,27.267 24.186,27.581 C24.227,27.878 24.412,28.126 24.671,28.276 C25.086,28.516 25.365,28.965 25.365,29.481 C25.365,30.346 24.577,31.027 23.683,30.840 C23.138,30.726 22.707,30.272 22.616,29.721 C22.539,29.263 22.686,28.838 22.965,28.536 C23.116,28.372 23.187,28.146 23.157,27.924 C22.932,26.227 22.365,24.399 21.737,22.662 C21.470,21.924 20.398,22.033 20.281,22.809 C20.268,22.890 20.256,22.970 20.244,23.051 C19.915,25.297 19.489,27.179 19.409,29.337 C19.400,29.589 19.598,29.801 19.849,29.813 C20.247,29.833 20.463,30.290 20.227,30.612 L19.065,32.190 C18.854,32.478 18.419,32.457 18.236,32.150 L17.230,30.468 C17.025,30.124 17.284,29.690 17.682,29.709 C17.983,29.724 18.233,29.487 18.247,29.185 C18.340,27.122 18.743,25.301 19.059,23.142 C19.204,22.153 19.320,21.377 19.418,20.412 C19.461,19.993 18.897,19.821 18.704,20.195 C17.214,23.078 14.941,25.608 13.437,30.592 C13.427,30.625 13.447,30.660 13.480,30.668 C13.744,30.731 13.908,30.997 13.846,31.263 L13.527,32.617 C13.465,32.883 13.199,33.048 12.934,32.985 L11.585,32.665 C11.321,32.602 11.157,32.336 11.219,32.070 L11.538,30.715 C11.600,30.450 11.866,30.285 12.130,30.348 C12.229,30.371 12.328,30.311 12.357,30.213 C14.652,22.234 17.622,21.450 18.858,16.117 C19.652,12.693 19.276,9.708 19.054,3.381 C19.041,2.996 18.859,2.646 18.587,2.375 C18.335,2.123 18.179,1.775 18.179,1.389 C18.179,0.523 18.968,-0.158 19.864,0.031 C20.398,0.143 20.824,0.585 20.924,1.123 C21.002,1.549 20.887,1.943 20.653,2.241 C20.359,2.616 20.240,3.099 20.257,3.577 C20.329,5.608 20.255,8.599 21.850,11.144 C22.405,12.030 24.150,13.675 25.388,15.755 C25.560,16.043 25.972,16.053 26.151,15.770 C26.207,15.680 26.264,15.590 26.319,15.500 C27.092,14.243 27.224,12.682 26.645,11.325 C26.089,10.023 25.781,8.823 25.572,7.414 C25.518,7.051 25.378,6.697 25.125,6.432 C24.888,6.185 24.742,5.850 24.742,5.479 C24.742,4.613 25.530,3.932 26.425,4.120 C26.969,4.234 27.400,4.690 27.491,5.240 C27.560,5.652 27.447,6.037 27.221,6.330 C26.865,6.790 26.765,7.400 26.903,7.965 C27.995,12.419 30.706,15.965 31.998,17.867 C32.161,18.106 32.399,18.280 32.674,18.370 C33.226,18.552 33.626,19.071 33.626,19.687 C33.626,20.548 32.847,21.227 31.958,21.049 ZM23.434,15.249 C22.803,14.303 22.087,13.272 21.551,12.616 C21.119,12.088 20.271,12.449 20.351,13.127 C20.555,14.866 21.044,17.167 22.187,20.465 C22.365,20.981 23.091,21.006 23.293,20.498 C23.434,20.143 23.581,19.811 23.725,19.509 C24.380,18.133 24.280,16.515 23.434,15.249 ZM15.156,17.588 C14.682,17.431 14.355,17.017 14.263,16.523 C14.213,16.254 14.226,16.005 14.303,15.784 C14.400,15.503 14.409,15.200 14.281,14.931 C13.763,13.850 13.063,12.501 12.548,11.220 C12.311,10.632 11.532,10.514 11.124,10.998 C10.649,11.560 10.173,12.042 9.659,12.569 C8.526,13.732 8.513,15.602 9.653,16.758 C10.629,17.747 11.685,18.587 11.964,20.517 C11.972,20.574 12.021,20.619 12.079,20.619 C12.368,20.619 12.602,20.854 12.602,21.144 L12.602,22.475 C12.602,22.765 12.368,23.000 12.079,23.000 L10.754,23.000 C10.465,23.000 10.231,22.765 10.231,22.475 L10.231,21.144 C10.231,20.854 10.465,20.619 10.754,20.619 C10.843,20.619 10.910,20.533 10.888,20.447 C10.429,18.625 9.312,18.218 8.248,16.904 C7.992,16.587 7.481,16.797 7.512,17.204 C7.797,20.915 8.003,24.100 7.393,27.958 C7.344,28.273 7.581,28.560 7.898,28.575 C8.306,28.595 8.528,29.064 8.285,29.394 L7.138,30.954 C6.921,31.249 6.474,31.227 6.287,30.913 L5.293,29.251 C5.083,28.898 5.348,28.453 5.757,28.472 C6.143,28.491 6.473,28.199 6.508,27.812 C6.907,23.476 6.662,20.105 6.447,17.954 C6.376,17.248 5.480,16.985 5.047,17.546 C3.974,18.937 3.070,20.327 2.421,21.951 C2.348,22.135 2.366,22.351 2.486,22.509 C2.662,22.741 2.767,23.028 2.767,23.342 C2.767,24.110 2.146,24.733 1.381,24.732 C0.649,24.731 0.021,24.119 -0.002,23.385 C-0.021,22.750 0.385,22.212 0.951,22.027 C1.114,21.973 1.253,21.861 1.327,21.705 C2.302,19.666 2.745,18.665 4.080,16.993 C6.473,13.997 6.700,11.307 6.397,7.763 C6.367,7.406 6.200,7.073 5.927,6.842 C5.628,6.588 5.437,6.210 5.437,5.785 C5.437,4.919 6.226,4.237 7.122,4.426 C7.652,4.538 8.076,4.974 8.180,5.508 C8.260,5.924 8.154,6.312 7.933,6.609 C7.680,6.947 7.537,7.355 7.585,7.775 C7.732,9.079 7.849,10.240 7.743,11.530 C7.698,12.080 8.359,12.392 8.745,11.999 C12.004,8.681 12.549,6.959 12.444,3.663 C12.432,3.289 12.298,2.921 12.039,2.652 C11.799,2.403 11.651,2.066 11.651,1.693 C11.651,0.827 12.440,0.146 13.335,0.334 C13.874,0.448 14.302,0.895 14.398,1.439 C14.478,1.891 14.339,2.309 14.072,2.611 C13.788,2.932 13.662,3.361 13.677,3.790 C13.718,4.964 13.625,6.075 13.405,7.094 C13.069,8.646 13.267,10.253 13.959,11.681 C14.480,12.755 14.855,14.131 15.389,14.659 C15.421,14.691 15.494,14.852 15.756,14.888 C16.513,14.994 17.010,15.632 17.010,16.276 C17.010,17.196 16.119,17.907 15.156,17.588 ZM55.935,23.362 C56.351,23.362 56.723,23.430 57.127,23.554 L57.510,23.667 C57.578,23.678 57.600,23.723 57.578,23.791 L57.432,24.243 C57.409,24.299 57.364,24.322 57.308,24.311 L56.947,24.209 C56.576,24.097 56.238,24.039 55.945,24.039 C54.494,24.039 53.795,24.933 53.795,26.402 C53.795,27.883 54.516,28.765 55.923,28.765 C56.250,28.765 56.632,28.697 57.026,28.583 L57.386,28.482 C57.454,28.470 57.499,28.493 57.521,28.561 L57.656,29.013 C57.668,29.081 57.645,29.126 57.578,29.137 L57.218,29.239 C56.790,29.341 56.362,29.442 55.923,29.442 C54.066,29.442 53.064,28.267 53.064,26.402 C53.064,24.537 54.054,23.362 55.935,23.362 ZM66.505,23.475 C66.561,23.475 66.606,23.497 66.617,23.565 C66.685,23.779 66.786,24.039 66.887,24.243 L68.171,26.719 C68.261,26.944 68.384,27.239 68.441,27.419 C68.463,27.521 68.531,27.521 68.554,27.419 C68.599,27.239 68.722,26.944 68.824,26.719 L70.107,24.243 C70.219,24.039 70.321,23.779 70.377,23.565 C70.389,23.497 70.433,23.475 70.489,23.475 L71.345,23.475 C71.412,23.475 71.447,23.509 71.447,23.576 L71.447,29.228 C71.447,29.296 71.412,29.330 71.345,29.330 L70.816,29.330 C70.748,29.330 70.715,29.296 70.715,29.228 L70.715,25.939 C70.715,25.509 70.726,24.989 70.771,24.582 C70.782,24.469 70.703,24.446 70.659,24.549 C70.568,24.763 70.456,25.012 70.343,25.249 L69.128,27.611 C69.015,27.838 68.891,28.143 68.813,28.380 C68.801,28.437 68.756,28.459 68.699,28.459 L68.283,28.459 C68.227,28.459 68.182,28.437 68.171,28.380 C68.092,28.143 67.979,27.849 67.867,27.611 L66.640,25.249 C66.527,25.012 66.415,24.763 66.325,24.549 C66.279,24.435 66.190,24.469 66.212,24.582 C66.257,24.989 66.279,25.509 66.279,25.939 L66.279,29.228 C66.279,29.296 66.246,29.330 66.178,29.330 L65.649,29.330 C65.582,29.330 65.548,29.296 65.548,29.228 L65.548,23.576 C65.548,23.509 65.582,23.475 65.649,23.475 L66.505,23.475 ZM81.431,23.463 C81.499,23.463 81.532,23.497 81.532,23.565 L81.532,27.012 C81.532,28.098 82.152,28.730 83.232,28.730 C84.325,28.730 84.932,28.098 84.932,27.012 L84.932,23.565 C84.932,23.497 84.966,23.463 85.033,23.463 L85.563,23.463 C85.630,23.463 85.664,23.497 85.664,23.565 L85.664,27.012 C85.664,28.527 84.786,29.420 83.232,29.420 C81.690,29.420 80.801,28.527 80.801,27.012 L80.801,23.565 C80.801,23.497 80.835,23.463 80.902,23.463 L81.431,23.463 ZM94.749,23.475 C94.816,23.475 94.850,23.509 94.850,23.576 L94.850,29.228 C94.850,29.296 94.816,29.330 94.749,29.330 L94.220,29.330 C94.152,29.330 94.119,29.296 94.119,29.228 L94.119,23.576 C94.119,23.509 94.152,23.475 94.220,23.475 L94.749,23.475 ZM101.210,23.475 C101.277,23.475 101.311,23.509 101.311,23.576 L101.311,24.039 C101.311,24.107 101.277,24.142 101.210,24.142 L99.116,24.142 L99.116,29.228 C99.116,29.296 99.083,29.330 99.015,29.330 L98.486,29.330 C98.418,29.330 98.384,29.296 98.384,29.228 L98.384,24.142 L96.291,24.142 C96.223,24.142 96.190,24.107 96.190,24.039 L96.190,23.576 C96.190,23.509 96.223,23.475 96.291,23.475 L101.210,23.475 ZM113.739,23.362 C115.405,23.362 116.441,24.526 116.441,26.402 C116.441,28.267 115.405,29.442 113.739,29.442 C112.062,29.442 111.026,28.267 111.026,26.402 C111.026,24.526 112.062,23.362 113.739,23.362 ZM113.739,28.753 C114.954,28.753 115.709,27.871 115.709,26.402 C115.709,24.933 114.954,24.039 113.739,24.039 C112.501,24.039 111.758,24.933 111.758,26.402 C111.758,27.871 112.501,28.753 113.739,28.753 ZM136.264,23.475 C136.331,23.475 136.365,23.509 136.365,23.576 L136.365,24.039 C136.365,24.107 136.331,24.142 136.264,24.142 L134.170,24.142 L134.170,29.228 C134.170,29.296 134.137,29.330 134.069,29.330 L133.540,29.330 C133.473,29.330 133.438,29.296 133.438,29.228 L133.438,24.142 L131.345,24.142 C131.277,24.142 131.244,24.107 131.244,24.039 L131.244,23.576 C131.244,23.509 131.277,23.475 131.345,23.475 L136.264,23.475 ZM146.475,23.475 C147.791,23.475 148.546,24.097 148.546,25.158 C148.546,25.939 148.062,26.447 147.229,26.684 C147.105,26.730 147.105,26.775 147.206,26.820 C147.679,27.024 147.949,27.374 148.140,27.781 L148.838,29.205 C148.872,29.285 148.838,29.330 148.760,29.330 L148.197,29.330 C148.140,29.330 148.107,29.307 148.084,29.250 L147.499,28.075 C147.138,27.340 146.599,26.990 145.698,26.990 L144.651,26.990 L144.651,29.228 C144.651,29.296 144.617,29.330 144.550,29.330 L144.021,29.330 C143.953,29.330 143.920,29.296 143.920,29.228 L143.920,23.576 C143.920,23.509 143.953,23.475 144.021,23.475 L146.475,23.475 ZM144.651,26.312 L145.990,26.312 C147.161,26.312 147.825,25.905 147.825,25.204 C147.825,24.549 147.319,24.142 146.486,24.142 L144.651,24.142 L144.651,26.312 ZM154.726,23.475 C154.793,23.475 154.828,23.509 154.828,23.576 L154.828,24.039 C154.828,24.107 154.793,24.142 154.726,24.142 L152.632,24.142 L152.632,29.228 C152.632,29.296 152.599,29.330 152.531,29.330 L152.002,29.330 C151.934,29.330 151.900,29.296 151.900,29.228 L151.900,24.142 L149.807,24.142 C149.739,24.142 149.706,24.107 149.706,24.039 L149.706,23.576 C149.706,23.509 149.739,23.475 149.807,23.475 L154.726,23.475 ZM156.753,23.463 C156.820,23.463 156.854,23.497 156.854,23.565 L156.854,27.012 C156.854,28.098 157.473,28.730 158.553,28.730 C159.646,28.730 160.253,28.098 160.253,27.012 L160.253,23.565 C160.253,23.497 160.287,23.463 160.355,23.463 L160.884,23.463 C160.951,23.463 160.985,23.497 160.985,23.565 L160.985,27.012 C160.985,28.527 160.107,29.420 158.553,29.420 C157.011,29.420 156.122,28.527 156.122,27.012 L156.122,23.565 C156.122,23.497 156.156,23.463 156.224,23.463 L156.753,23.463 ZM165.105,23.475 C166.490,23.475 167.289,24.142 167.289,25.283 C167.289,26.515 166.253,27.216 164.463,27.216 L163.416,27.216 L163.416,29.228 C163.416,29.296 163.383,29.330 163.315,29.330 L162.786,29.330 C162.719,29.330 162.685,29.296 162.685,29.228 L162.685,23.576 C162.685,23.509 162.719,23.475 162.786,23.475 L165.105,23.475 ZM163.416,26.549 L164.463,26.549 C165.780,26.549 166.557,26.074 166.557,25.283 C166.557,24.560 166.017,24.142 165.105,24.142 L163.416,24.142 L163.416,26.549 ZM168.527,28.459 C168.550,28.403 168.595,28.380 168.651,28.403 L168.978,28.515 C169.428,28.674 170.024,28.753 170.677,28.753 C171.668,28.753 172.253,28.391 172.253,27.770 C172.253,27.306 171.972,27.024 171.353,26.854 L169.833,26.447 C168.899,26.210 168.471,25.735 168.471,24.921 C168.471,23.949 169.271,23.362 170.632,23.362 C171.206,23.362 171.691,23.430 172.118,23.554 L172.614,23.701 C172.681,23.723 172.703,23.769 172.681,23.837 L172.546,24.277 C172.524,24.334 172.479,24.357 172.422,24.345 L171.927,24.209 C171.556,24.097 171.128,24.039 170.655,24.039 C169.732,24.039 169.203,24.402 169.203,24.933 C169.203,25.373 169.462,25.656 170.070,25.814 L171.578,26.210 C172.558,26.470 172.985,26.979 172.985,27.770 C172.985,28.821 172.130,29.442 170.677,29.442 C169.935,29.442 169.315,29.352 168.753,29.149 L168.426,29.035 C168.359,29.013 168.336,28.968 168.359,28.900 L168.527,28.459 Z"/>
</svg>