<svg 
 xmlns="http://www.w3.org/2000/svg"
 xmlns:xlink="http://www.w3.org/1999/xlink"
 width="170px" height="236px">
<path fill-rule="evenodd"  fill="rgb(255, 255, 255)"
 d="M158.494,219.494 L158.494,200.969 L163.322,200.969 L163.322,215.154 L170.000,215.154 L170.000,219.494 L158.494,219.494 ZM168.994,96.854 C169.022,96.907 169.039,96.956 169.066,97.009 L168.905,96.714 C168.932,96.761 168.968,96.807 168.994,96.854 ZM160.526,105.595 C157.873,105.068 155.736,102.926 155.160,100.277 C154.877,98.975 154.971,97.736 155.341,96.621 C155.898,94.947 155.594,93.103 154.657,91.609 C152.050,87.447 149.609,83.521 146.821,79.260 C145.732,77.595 143.150,78.290 143.025,80.278 C142.273,92.254 142.488,102.067 144.413,114.998 C144.617,116.366 145.892,117.311 147.258,117.119 C149.305,116.831 150.846,118.948 149.948,120.816 L145.713,129.627 C144.912,131.295 142.677,131.608 141.449,130.226 L134.963,122.921 C133.588,121.373 134.489,118.914 136.536,118.626 C137.883,118.437 138.788,117.170 138.569,115.825 C136.952,105.874 136.689,95.909 137.050,86.211 C137.121,84.303 134.664,83.477 133.589,85.053 C128.295,92.822 125.177,99.268 123.223,103.548 C119.001,112.794 119.439,122.698 120.800,133.323 C121.029,135.109 121.275,136.784 121.492,138.359 C121.697,139.848 122.626,141.093 123.925,141.843 C126.009,143.047 127.412,145.303 127.412,147.888 C127.412,152.230 123.457,155.645 118.962,154.706 C116.229,154.136 114.064,151.855 113.603,149.094 C113.219,146.797 113.957,144.662 115.355,143.149 C116.117,142.325 116.472,141.192 116.324,140.078 C115.189,131.566 112.345,122.396 109.189,113.682 C107.850,109.984 102.464,110.529 101.875,114.419 C101.813,114.825 101.753,115.231 101.693,115.636 C100.038,126.899 97.900,136.339 97.496,147.167 C97.449,148.432 98.446,149.495 99.706,149.556 C101.707,149.652 102.793,151.946 101.603,153.561 L95.770,161.478 C94.708,162.920 92.524,162.815 91.604,161.277 L86.554,152.837 C85.524,151.115 86.824,148.936 88.824,149.032 L88.825,149.032 C90.336,149.105 91.592,147.920 91.660,146.404 C92.126,136.055 94.150,126.920 95.741,116.091 C96.469,111.131 97.050,107.237 97.543,102.398 C97.757,100.298 94.925,99.434 93.955,101.308 C86.471,115.770 75.053,128.461 67.500,153.463 C67.451,153.626 67.549,153.802 67.714,153.841 C69.044,154.157 69.867,155.493 69.553,156.826 L67.953,163.620 C67.639,164.954 66.306,165.780 64.976,165.465 L58.201,163.860 C56.871,163.545 56.047,162.209 56.361,160.875 L57.961,154.081 C58.276,152.748 59.608,151.922 60.938,152.237 C61.433,152.354 61.932,152.051 62.073,151.562 C73.603,111.535 88.520,107.605 94.730,80.853 C98.717,63.676 96.831,48.707 95.714,16.968 C95.646,15.039 94.736,13.282 93.370,11.922 C92.103,10.659 91.318,8.911 91.318,6.978 C91.318,2.632 95.281,-0.785 99.781,0.162 C102.463,0.727 104.601,2.942 105.104,5.644 C105.500,7.776 104.923,9.758 103.748,11.249 C102.266,13.130 101.671,15.557 101.756,17.952 C102.119,28.138 101.748,43.141 109.757,55.907 C112.547,60.354 121.310,68.604 127.529,79.040 C128.389,80.484 130.460,80.532 131.359,79.111 C131.645,78.660 131.926,78.208 132.206,77.756 C136.086,71.456 136.750,63.621 133.840,56.816 C131.047,50.286 129.500,44.265 128.450,37.200 C128.180,35.380 127.480,33.601 126.209,32.274 C125.018,31.032 124.282,29.354 124.282,27.492 C124.282,23.148 128.242,19.732 132.738,20.675 C135.471,21.248 137.634,23.532 138.093,26.294 C138.436,28.361 137.871,30.293 136.735,31.759 C134.948,34.066 134.443,37.127 135.139,39.963 C140.624,62.305 154.239,80.089 160.729,89.629 C161.546,90.831 162.744,91.701 164.123,92.154 C166.899,93.066 168.905,95.673 168.905,98.762 C168.905,103.081 164.991,106.483 160.526,105.595 ZM117.715,76.498 C114.545,71.757 110.947,66.582 108.255,63.293 C106.086,60.645 101.827,62.454 102.227,65.857 C103.252,74.578 105.711,86.122 111.448,102.662 C112.347,105.252 115.990,105.377 117.004,102.830 C117.714,101.046 118.450,99.385 119.174,97.867 C122.468,90.967 121.963,82.851 117.715,76.498 ZM76.137,88.234 C73.752,87.446 72.109,85.368 71.648,82.892 C71.396,81.540 71.463,80.293 71.848,79.183 C72.337,77.771 72.385,76.253 71.739,74.906 C69.136,69.480 65.621,62.718 63.033,56.289 C61.845,53.339 57.933,52.748 55.882,55.176 C53.500,57.997 51.108,60.412 48.526,63.059 C42.836,68.892 42.766,78.271 48.493,84.068 C53.395,89.030 58.699,93.242 60.102,102.923 C60.144,103.213 60.388,103.436 60.680,103.436 C62.132,103.436 63.308,104.616 63.308,106.071 L63.308,112.745 C63.308,114.200 62.132,115.379 60.680,115.379 L54.025,115.379 C52.574,115.379 51.398,114.200 51.398,112.745 L51.398,106.071 C51.398,104.616 52.574,103.436 54.025,103.436 C54.471,103.436 54.808,103.006 54.699,102.572 C52.394,93.433 46.779,91.391 41.439,84.799 C40.152,83.210 37.584,84.266 37.741,86.306 C39.174,104.921 40.208,120.894 37.144,140.250 C36.894,141.828 38.085,143.269 39.677,143.346 C41.729,143.445 42.844,145.798 41.622,147.455 L35.860,155.277 C34.770,156.757 32.530,156.649 31.586,155.072 L26.596,146.732 C25.539,144.966 26.873,142.730 28.925,142.829 C30.865,142.922 32.521,141.458 32.700,139.519 C34.701,117.765 33.470,100.859 32.391,90.070 C32.036,86.524 27.534,85.205 25.357,88.023 C19.967,94.998 15.428,101.973 12.170,110.116 C11.801,111.040 11.893,112.126 12.495,112.917 C13.378,114.078 13.909,115.518 13.909,117.093 C13.909,120.948 10.790,124.072 6.944,124.067 C3.269,124.062 0.113,120.992 0.002,117.308 C-0.094,114.125 1.944,111.428 4.785,110.497 C5.605,110.228 6.302,109.664 6.675,108.884 C11.570,98.657 13.799,93.635 20.505,85.248 C32.521,70.218 33.662,56.727 32.142,38.948 C31.989,37.158 31.151,35.488 29.782,34.330 C28.277,33.056 27.319,31.158 27.319,29.027 C27.319,24.681 31.282,21.264 35.781,22.211 C38.444,22.772 40.574,24.958 41.094,27.636 C41.499,29.726 40.967,31.673 39.852,33.161 C38.583,34.855 37.866,36.905 38.105,39.010 C38.845,45.550 39.433,51.376 38.902,57.843 C38.675,60.604 41.995,62.168 43.935,60.196 C60.301,43.555 63.040,34.916 62.513,18.381 C62.454,16.505 61.779,14.658 60.477,13.309 C59.274,12.064 58.530,10.375 58.530,8.502 C58.530,4.157 62.492,0.740 66.991,1.686 C69.694,2.255 71.843,4.500 72.327,7.228 C72.728,9.494 72.033,11.594 70.690,13.106 C69.262,14.714 68.628,16.870 68.705,19.021 C68.913,24.910 68.446,30.481 67.339,35.595 C65.653,43.378 66.645,51.440 70.123,58.601 C72.740,63.987 74.622,70.892 77.305,73.539 C77.467,73.699 77.831,74.506 79.147,74.690 C82.952,75.223 85.448,78.420 85.448,81.648 C85.448,86.265 80.974,89.834 76.137,88.234 ZM3.116,230.960 C3.500,230.132 3.868,229.098 4.089,228.314 C4.104,228.225 4.163,228.195 4.236,228.195 L5.018,228.195 C5.091,228.195 5.150,228.225 5.165,228.314 C5.386,229.098 5.754,230.132 6.138,230.960 L8.305,235.690 C8.349,235.793 8.305,235.852 8.202,235.852 L7.464,235.852 C7.390,235.852 7.347,235.822 7.317,235.749 L6.639,234.270 L2.615,234.270 L1.937,235.749 C1.907,235.822 1.864,235.852 1.790,235.852 L1.052,235.852 C0.949,235.852 0.905,235.793 0.949,235.690 L3.116,230.960 ZM6.226,233.399 L5.400,231.595 C5.106,230.915 4.841,230.191 4.737,229.732 C4.693,229.600 4.560,229.600 4.517,229.732 C4.413,230.191 4.163,230.901 3.853,231.595 L3.028,233.399 L6.226,233.399 ZM6.406,219.494 L1.577,219.494 L1.577,200.916 L3.293,200.916 L10.629,208.935 L17.940,200.916 L19.655,200.916 L19.655,219.494 L14.825,219.494 L14.825,210.947 L10.893,215.075 L10.339,215.075 L6.406,210.947 L6.406,219.494 ZM16.708,228.048 C17.252,228.048 17.739,228.137 18.269,228.299 L18.771,228.447 C18.859,228.461 18.889,228.520 18.859,228.609 L18.668,229.200 C18.638,229.274 18.579,229.304 18.506,229.289 L18.034,229.156 C17.547,229.009 17.105,228.934 16.722,228.934 C14.821,228.934 13.906,230.102 13.906,232.024 C13.906,233.960 14.850,235.113 16.693,235.113 C17.120,235.113 17.621,235.025 18.137,234.876 L18.608,234.744 C18.697,234.729 18.756,234.758 18.785,234.847 L18.962,235.438 C18.977,235.527 18.947,235.586 18.859,235.601 L18.387,235.733 C17.828,235.867 17.267,236.000 16.693,236.000 C14.260,236.000 12.948,234.462 12.948,232.024 C12.948,229.585 14.245,228.048 16.708,228.048 ZM23.871,228.048 C26.053,228.048 27.408,229.570 27.408,232.024 C27.408,234.462 26.053,236.000 23.871,236.000 C21.675,236.000 20.318,234.462 20.318,232.024 C20.318,229.570 21.675,228.048 23.871,228.048 ZM23.871,235.099 C25.462,235.099 26.450,233.945 26.450,232.024 C26.450,230.102 25.462,228.934 23.871,228.934 C22.249,228.934 21.276,230.102 21.276,232.024 C21.276,233.945 22.249,235.099 23.871,235.099 ZM21.313,219.494 L21.313,218.833 L29.784,200.784 L32.001,200.784 L40.394,218.833 L40.394,219.494 L35.406,219.494 L34.324,217.192 L27.409,217.192 L26.354,219.494 L21.313,219.494 ZM32.793,213.142 L30.867,208.670 L28.966,213.142 L32.793,213.142 ZM29.428,228.195 L30.549,228.195 C30.622,228.195 30.681,228.225 30.696,228.314 C30.784,228.594 30.917,228.934 31.050,229.200 L32.731,232.438 C32.848,232.733 33.010,233.118 33.083,233.354 C33.113,233.487 33.202,233.487 33.232,233.354 C33.290,233.118 33.452,232.733 33.586,232.438 L35.265,229.200 C35.412,228.934 35.546,228.594 35.619,228.314 C35.634,228.225 35.693,228.195 35.766,228.195 L36.887,228.195 C36.975,228.195 37.020,228.240 37.020,228.328 L37.020,235.719 C37.020,235.808 36.975,235.852 36.887,235.852 L36.194,235.852 C36.105,235.852 36.062,235.808 36.062,235.719 L36.062,231.418 C36.062,230.856 36.077,230.176 36.135,229.644 C36.150,229.496 36.047,229.466 35.988,229.600 C35.870,229.880 35.723,230.206 35.575,230.516 L33.983,233.605 C33.836,233.901 33.674,234.300 33.570,234.610 C33.556,234.685 33.497,234.714 33.423,234.714 L32.878,234.714 C32.804,234.714 32.745,234.685 32.731,234.610 C32.627,234.300 32.479,233.916 32.332,233.605 L30.726,230.516 C30.578,230.206 30.430,229.880 30.313,229.600 C30.253,229.451 30.136,229.496 30.165,229.644 C30.225,230.176 30.253,230.856 30.253,231.418 L30.253,235.719 C30.253,235.808 30.210,235.852 30.121,235.852 L29.428,235.852 C29.340,235.852 29.296,235.808 29.296,235.719 L29.296,228.328 C29.296,228.240 29.340,228.195 29.428,228.195 ZM39.452,228.195 L40.573,228.195 C40.646,228.195 40.705,228.225 40.720,228.314 C40.808,228.594 40.941,228.934 41.074,229.200 L42.754,232.438 C42.872,232.733 43.034,233.118 43.107,233.354 C43.137,233.487 43.226,233.487 43.256,233.354 C43.314,233.118 43.476,232.733 43.609,232.438 L45.289,229.200 C45.436,228.934 45.570,228.594 45.643,228.314 C45.658,228.225 45.717,228.195 45.790,228.195 L46.911,228.195 C46.999,228.195 47.044,228.240 47.044,228.328 L47.044,235.719 C47.044,235.808 46.999,235.852 46.911,235.852 L46.218,235.852 C46.129,235.852 46.086,235.808 46.086,235.719 L46.086,231.418 C46.086,230.856 46.100,230.176 46.159,229.644 C46.174,229.496 46.071,229.466 46.012,229.600 C45.894,229.880 45.747,230.206 45.598,230.516 L44.007,233.605 C43.860,233.901 43.698,234.300 43.594,234.610 C43.580,234.685 43.521,234.714 43.446,234.714 L42.902,234.714 C42.828,234.714 42.769,234.685 42.754,234.610 C42.651,234.300 42.503,233.916 42.356,233.605 L40.750,230.516 C40.602,230.206 40.454,229.880 40.337,229.600 C40.277,229.451 40.160,229.496 40.189,229.644 C40.248,230.176 40.277,230.856 40.277,231.418 L40.277,235.719 C40.277,235.808 40.234,235.852 40.145,235.852 L39.452,235.852 C39.364,235.852 39.320,235.808 39.320,235.719 L39.320,228.328 C39.320,228.240 39.364,228.195 39.452,228.195 ZM49.402,228.180 L50.095,228.180 C50.183,228.180 50.227,228.225 50.227,228.314 L50.227,232.822 C50.227,234.241 51.038,235.069 52.452,235.069 C53.883,235.069 54.678,234.241 54.678,232.822 L54.678,228.314 C54.678,228.225 54.723,228.180 54.811,228.180 L55.504,228.180 C55.593,228.180 55.636,228.225 55.636,228.314 L55.636,232.822 C55.636,234.803 54.487,235.971 52.452,235.971 C50.434,235.971 49.269,234.803 49.269,232.822 L49.269,228.314 C49.269,228.225 49.313,228.180 49.402,228.180 ZM46.909,219.494 L42.080,219.494 L42.080,200.889 L43.584,200.889 L53.217,210.020 L53.217,200.969 L58.046,200.969 L58.046,219.547 L56.621,219.547 L46.909,209.941 L46.909,219.494 ZM57.996,228.195 L58.881,228.195 C58.954,228.195 58.998,228.225 59.028,228.284 C59.205,228.639 59.470,229.067 59.706,229.393 L62.934,233.664 C63.111,233.916 63.317,234.241 63.406,234.433 C63.450,234.551 63.553,234.507 63.538,234.389 C63.465,234.004 63.450,233.561 63.450,233.073 L63.450,228.328 C63.450,228.240 63.494,228.195 63.583,228.195 L64.276,228.195 C64.364,228.195 64.408,228.240 64.408,228.328 L64.408,235.719 C64.408,235.808 64.364,235.852 64.276,235.852 L63.376,235.852 C63.303,235.852 63.259,235.822 63.229,235.749 C63.052,235.408 62.772,234.980 62.536,234.655 L59.308,230.368 C59.160,230.132 58.969,229.821 58.866,229.615 C58.807,229.511 58.704,229.555 58.719,229.659 C58.777,230.044 58.821,230.501 58.821,230.960 L58.821,235.719 C58.821,235.808 58.777,235.852 58.689,235.852 L57.996,235.852 C57.908,235.852 57.864,235.808 57.864,235.719 L57.864,228.328 C57.864,228.240 57.908,228.195 57.996,228.195 ZM67.533,228.195 C67.622,228.195 67.665,228.240 67.665,228.328 L67.665,235.719 C67.665,235.808 67.622,235.852 67.533,235.852 L66.840,235.852 C66.752,235.852 66.708,235.808 66.708,235.719 L66.708,228.328 C66.708,228.240 66.752,228.195 66.840,228.195 L67.533,228.195 ZM75.993,228.195 C76.082,228.195 76.126,228.240 76.126,228.328 L76.126,228.934 C76.126,229.023 76.082,229.067 75.993,229.067 L73.252,229.067 L73.252,235.719 C73.252,235.808 73.208,235.852 73.120,235.852 L72.427,235.852 C72.338,235.852 72.294,235.808 72.294,235.719 L72.294,229.067 L69.552,229.067 C69.464,229.067 69.420,229.023 69.420,228.934 L69.420,228.328 C69.420,228.240 69.464,228.195 69.552,228.195 L75.993,228.195 ZM70.578,208.988 L79.286,208.988 C79.418,210.788 79.392,212.560 78.784,214.360 C77.438,218.251 73.956,219.732 70.524,219.732 C65.826,219.732 61.024,216.583 61.024,210.258 C61.024,203.907 65.826,200.731 70.524,200.731 C74.193,200.731 78.020,202.610 78.995,207.109 L74.299,207.109 C73.480,205.627 72.319,205.071 70.524,205.071 C67.543,205.071 65.906,207.427 65.906,210.231 C65.906,213.328 67.700,215.312 70.524,215.312 C72.424,215.312 73.639,214.836 74.510,213.063 L70.578,213.063 L70.578,208.988 ZM78.175,228.180 C78.249,228.180 78.294,228.210 78.337,228.269 L80.062,230.605 C80.342,231.003 80.504,231.343 80.755,231.906 C80.799,232.024 80.888,232.024 80.932,231.906 C81.182,231.343 81.359,231.003 81.639,230.605 L83.349,228.269 C83.393,228.210 83.438,228.180 83.511,228.180 L84.323,228.180 C84.425,228.180 84.470,228.254 84.396,228.343 L82.362,231.181 C81.610,232.276 81.330,232.867 81.330,233.975 L81.330,235.719 C81.330,235.808 81.286,235.852 81.197,235.852 L80.519,235.852 C80.431,235.852 80.387,235.808 80.387,235.719 L80.387,233.975 C80.372,232.867 80.077,232.276 79.325,231.181 L77.292,228.343 C77.218,228.254 77.262,228.180 77.365,228.180 L78.175,228.180 ZM92.400,228.048 C94.582,228.048 95.938,229.570 95.938,232.024 C95.938,234.462 94.582,236.000 92.400,236.000 C90.204,236.000 88.847,234.462 88.847,232.024 C88.847,229.570 90.204,228.048 92.400,228.048 ZM92.400,235.099 C93.992,235.099 94.980,233.945 94.980,232.024 C94.980,230.102 93.992,228.934 92.400,228.934 C90.779,228.934 89.806,230.102 89.806,232.024 C89.806,233.945 90.779,235.099 92.400,235.099 ZM82.054,213.381 L82.054,200.969 L86.883,200.969 L86.883,213.275 C86.883,214.810 88.229,215.472 89.601,215.472 C90.894,215.472 92.267,214.810 92.267,213.275 L92.267,200.969 L97.044,200.969 L97.044,213.381 C97.044,217.535 93.454,219.732 89.575,219.732 C85.669,219.732 82.054,217.535 82.054,213.381 ZM97.958,228.195 L103.411,228.195 C103.515,228.195 103.559,228.254 103.530,228.343 L103.352,228.949 C103.338,229.038 103.279,229.067 103.205,229.067 L98.783,229.067 L98.783,231.772 L102.660,231.772 C102.748,231.772 102.793,231.817 102.793,231.906 L102.793,232.527 C102.793,232.615 102.748,232.659 102.660,232.659 L98.783,232.659 L98.783,235.719 C98.783,235.808 98.739,235.852 98.651,235.852 L97.958,235.852 C97.869,235.852 97.826,235.808 97.826,235.719 L97.826,228.328 C97.826,228.240 97.869,228.195 97.958,228.195 ZM112.610,215.075 L112.610,219.494 L100.840,219.494 L100.840,200.969 L112.373,200.969 L112.373,205.176 L105.669,205.176 L105.669,207.823 L111.845,207.823 L111.845,212.058 L105.669,212.058 L105.669,215.075 L112.610,215.075 ZM108.365,234.714 C108.394,234.640 108.453,234.610 108.527,234.640 L108.954,234.788 C109.543,234.995 110.325,235.099 111.180,235.099 C112.477,235.099 113.243,234.625 113.243,233.812 C113.243,233.206 112.876,232.837 112.064,232.615 L110.074,232.083 C108.851,231.772 108.291,231.152 108.291,230.087 C108.291,228.816 109.338,228.048 111.121,228.048 C111.872,228.048 112.507,228.137 113.066,228.299 L113.715,228.491 C113.804,228.520 113.833,228.580 113.804,228.669 L113.627,229.245 C113.597,229.319 113.538,229.349 113.465,229.334 L112.816,229.156 C112.330,229.009 111.769,228.934 111.151,228.934 C109.942,228.934 109.249,229.408 109.249,230.102 C109.249,230.678 109.588,231.048 110.384,231.255 L112.360,231.772 C113.642,232.112 114.202,232.778 114.202,233.812 C114.202,235.187 113.081,236.000 111.180,236.000 C110.207,236.000 109.396,235.882 108.660,235.616 L108.232,235.467 C108.144,235.438 108.114,235.380 108.144,235.291 L108.365,234.714 ZM115.247,205.176 L115.247,200.969 L129.102,200.969 L129.102,201.684 L121.687,215.181 L129.181,215.181 L129.181,219.494 L114.588,219.494 L114.588,218.806 L122.030,205.176 L115.247,205.176 ZM115.454,228.195 L121.895,228.195 C121.984,228.195 122.029,228.240 122.029,228.328 L122.029,228.934 C122.029,229.023 121.984,229.067 121.895,229.067 L119.154,229.067 L119.154,235.719 C119.154,235.808 119.110,235.852 119.022,235.852 L118.329,235.852 C118.240,235.852 118.196,235.808 118.196,235.719 L118.196,229.067 L115.454,229.067 C115.366,229.067 115.322,229.023 115.322,228.934 L115.322,228.328 C115.322,228.240 115.366,228.195 115.454,228.195 ZM124.845,230.960 C125.228,230.132 125.596,229.098 125.818,228.314 C125.833,228.225 125.891,228.195 125.965,228.195 L126.746,228.195 C126.820,228.195 126.879,228.225 126.893,228.314 C127.115,229.098 127.483,230.132 127.867,230.960 L130.034,235.690 C130.077,235.793 130.034,235.852 129.930,235.852 L129.193,235.852 C129.119,235.852 129.075,235.822 129.046,235.749 L128.368,234.270 L124.344,234.270 L123.666,235.749 C123.636,235.822 123.592,235.852 123.519,235.852 L122.781,235.852 C122.678,235.852 122.634,235.793 122.678,235.690 L124.845,230.960 ZM127.955,233.399 L127.129,231.595 C126.835,230.915 126.570,230.191 126.466,229.732 C126.422,229.600 126.289,229.600 126.245,229.732 C126.142,230.191 125.891,230.901 125.582,231.595 L124.756,233.399 L127.955,233.399 ZM133.606,215.127 C135.085,215.127 136.219,216.080 136.219,217.563 C136.219,219.044 135.085,219.971 133.606,219.971 C132.155,219.971 130.994,219.044 130.994,217.563 C130.994,216.080 132.155,215.127 133.606,215.127 ZM135.266,228.195 C136.990,228.195 137.978,229.009 137.978,230.397 C137.978,231.418 137.344,232.083 136.253,232.393 C136.091,232.453 136.091,232.512 136.224,232.571 C136.843,232.837 137.197,233.295 137.447,233.828 L138.361,235.690 C138.406,235.793 138.361,235.852 138.258,235.852 L137.521,235.852 C137.447,235.852 137.404,235.822 137.374,235.749 L136.607,234.211 C136.135,233.250 135.428,232.793 134.249,232.793 L132.878,232.793 L132.878,235.719 C132.878,235.808 132.834,235.852 132.745,235.852 L132.053,235.852 C131.964,235.852 131.920,235.808 131.920,235.719 L131.920,228.328 C131.920,228.240 131.964,228.195 132.053,228.195 L135.266,228.195 ZM132.878,231.906 L134.632,231.906 C136.165,231.906 137.035,231.373 137.035,230.457 C137.035,229.600 136.372,229.067 135.280,229.067 L132.878,229.067 L132.878,231.906 ZM146.071,228.195 C146.159,228.195 146.204,228.240 146.204,228.328 L146.204,228.934 C146.204,229.023 146.159,229.067 146.071,229.067 L143.329,229.067 L143.329,235.719 C143.329,235.808 143.285,235.852 143.197,235.852 L142.504,235.852 C142.415,235.852 142.371,235.808 142.371,235.719 L142.371,229.067 L139.629,229.067 C139.541,229.067 139.497,229.023 139.497,228.934 L139.497,228.328 C139.497,228.240 139.541,228.195 139.629,228.195 L146.071,228.195 ZM148.032,228.180 L148.725,228.180 C148.813,228.180 148.857,228.225 148.857,228.314 L148.857,232.822 C148.857,234.241 149.668,235.069 151.083,235.069 C152.513,235.069 153.308,234.241 153.308,232.822 L153.308,228.314 C153.308,228.225 153.353,228.180 153.441,228.180 L154.134,228.180 C154.223,228.180 154.267,228.225 154.267,228.314 L154.267,232.822 C154.267,234.803 153.117,235.971 151.083,235.971 C149.064,235.971 147.899,234.803 147.899,232.822 L147.899,228.314 C147.899,228.225 147.943,228.180 148.032,228.180 ZM150.737,217.192 L143.823,217.192 L142.768,219.494 L137.727,219.494 L137.727,218.833 L146.198,200.784 L148.415,200.784 L156.807,218.833 L156.807,219.494 L151.820,219.494 L150.737,217.192 ZM147.281,208.670 L145.380,213.142 L149.207,213.142 L147.281,208.670 ZM156.625,228.195 L159.662,228.195 C161.475,228.195 162.521,229.067 162.521,230.561 C162.521,232.172 161.165,233.088 158.821,233.088 L157.450,233.088 L157.450,235.719 C157.450,235.808 157.407,235.852 157.318,235.852 L156.625,235.852 C156.537,235.852 156.493,235.808 156.493,235.719 L156.493,228.328 C156.493,228.240 156.537,228.195 156.625,228.195 ZM157.450,232.216 L158.821,232.216 C160.546,232.216 161.563,231.595 161.563,230.561 C161.563,229.615 160.856,229.067 159.662,229.067 L157.450,229.067 L157.450,232.216 ZM164.143,234.714 C164.173,234.640 164.232,234.610 164.305,234.640 L164.733,234.788 C165.322,234.995 166.104,235.099 166.959,235.099 C168.256,235.099 169.022,234.625 169.022,233.812 C169.022,233.206 168.654,232.837 167.843,232.615 L165.853,232.083 C164.629,231.772 164.070,231.152 164.070,230.087 C164.070,228.816 165.116,228.048 166.900,228.048 C167.651,228.048 168.286,228.137 168.845,228.299 L169.494,228.491 C169.583,228.520 169.612,228.580 169.583,228.669 L169.406,229.245 C169.376,229.319 169.317,229.349 169.244,229.334 L168.595,229.156 C168.108,229.009 167.548,228.934 166.929,228.934 C165.721,228.934 165.028,229.408 165.028,230.102 C165.028,230.678 165.367,231.048 166.163,231.255 L168.138,231.772 C169.421,232.112 169.980,232.778 169.980,233.812 C169.980,235.187 168.860,236.000 166.959,236.000 C165.986,236.000 165.175,235.882 164.438,235.616 L164.011,235.467 C163.922,235.438 163.893,235.380 163.922,235.291 L164.143,234.714 Z"/>
</svg>