<svg 
 xmlns="http://www.w3.org/2000/svg"
 xmlns:xlink="http://www.w3.org/1999/xlink"
 width="50px" height="48px">
<path fill-rule="evenodd"  fill="rgb(244, 250, 255)"
 d="M49.951,28.042 C49.959,28.056 49.969,28.069 49.977,28.083 C49.985,28.098 49.990,28.113 49.998,28.128 L49.951,28.042 ZM47.472,30.618 C46.688,30.465 46.056,29.844 45.886,29.076 C45.802,28.698 45.830,28.339 45.939,28.016 C46.104,27.530 46.014,26.995 45.737,26.562 C44.966,25.355 44.244,24.217 43.419,22.981 C43.097,22.498 42.334,22.700 42.297,23.276 C42.074,26.749 42.138,29.595 42.707,33.344 C42.767,33.741 43.145,34.015 43.548,33.959 C44.154,33.876 44.610,34.490 44.344,35.031 L43.092,37.586 C42.855,38.070 42.194,38.161 41.831,37.760 L39.912,35.642 C39.506,35.193 39.772,34.480 40.377,34.396 C40.776,34.341 41.044,33.974 40.979,33.584 C40.500,30.699 40.423,27.809 40.530,24.997 C40.551,24.443 39.824,24.204 39.506,24.661 C37.940,26.914 37.018,28.783 36.440,30.024 C35.191,32.705 35.321,35.577 35.724,38.658 C35.791,39.176 35.864,39.662 35.928,40.118 C35.989,40.550 36.264,40.911 36.648,41.129 C37.264,41.478 37.679,42.132 37.679,42.882 C37.679,44.141 36.509,45.131 35.180,44.859 C34.372,44.693 33.732,44.032 33.595,43.231 C33.482,42.565 33.700,41.946 34.113,41.508 C34.339,41.268 34.444,40.940 34.400,40.617 C34.064,38.149 33.223,35.490 32.290,32.963 C31.893,31.890 30.301,32.048 30.127,33.176 C30.108,33.294 30.090,33.412 30.073,33.529 C29.583,36.795 28.951,39.533 28.831,42.673 C28.817,43.039 29.112,43.348 29.485,43.365 C30.077,43.393 30.398,44.058 30.046,44.526 L28.321,46.822 C28.007,47.241 27.361,47.210 27.089,46.764 L25.595,44.317 C25.291,43.817 25.675,43.186 26.267,43.213 C26.714,43.234 27.085,42.891 27.105,42.451 C27.243,39.450 27.842,36.801 28.312,33.661 C28.528,32.223 28.700,31.094 28.845,29.691 C28.909,29.082 28.071,28.831 27.784,29.375 C25.571,33.568 22.194,37.248 19.960,44.498 C19.945,44.546 19.974,44.596 20.023,44.608 C20.417,44.700 20.660,45.087 20.567,45.473 L20.094,47.444 C20.001,47.830 19.607,48.070 19.214,47.978 L17.210,47.513 C16.816,47.422 16.573,47.034 16.666,46.648 L17.139,44.677 C17.232,44.291 17.626,44.051 18.019,44.143 C18.166,44.177 18.313,44.089 18.355,43.947 C21.765,32.340 26.177,31.201 28.013,23.443 C29.193,18.462 28.635,14.121 28.304,4.918 C28.284,4.359 28.015,3.849 27.611,3.455 C27.236,3.089 27.004,2.582 27.004,2.021 C27.004,0.761 28.177,-0.230 29.507,0.045 C30.300,0.208 30.933,0.851 31.081,1.634 C31.199,2.253 31.028,2.827 30.680,3.260 C30.242,3.805 30.066,4.509 30.091,5.203 C30.198,8.157 30.089,12.508 32.458,16.209 C33.283,17.499 35.875,19.891 37.714,22.917 C37.968,23.336 38.581,23.350 38.847,22.938 C38.931,22.807 39.014,22.676 39.097,22.545 C40.244,20.718 40.441,18.446 39.580,16.473 C38.754,14.579 38.297,12.834 37.986,10.785 C37.906,10.257 37.699,9.741 37.323,9.356 C36.971,8.996 36.754,8.509 36.754,7.970 C36.754,6.710 37.925,5.719 39.254,5.993 C40.063,6.159 40.702,6.822 40.838,7.622 C40.939,8.221 40.772,8.782 40.436,9.207 C39.908,9.876 39.758,10.764 39.964,11.586 C41.587,18.065 45.613,23.222 47.533,25.988 C47.774,26.337 48.128,26.589 48.536,26.720 C49.357,26.985 49.951,27.741 49.951,28.636 C49.951,29.889 48.793,30.875 47.472,30.618 ZM34.811,22.180 C33.874,20.805 32.810,19.305 32.013,18.351 C31.372,17.583 30.112,18.108 30.231,19.095 C30.534,21.624 31.261,24.971 32.958,29.767 C33.224,30.518 34.301,30.554 34.601,29.816 C34.811,29.298 35.029,28.817 35.243,28.377 C36.217,26.376 36.068,24.023 34.811,22.180 ZM22.515,25.584 C21.809,25.355 21.323,24.752 21.187,24.034 C21.112,23.642 21.132,23.281 21.246,22.959 C21.391,22.549 21.405,22.109 21.214,21.719 C20.444,20.145 19.404,18.184 18.639,16.320 C18.288,15.464 17.131,15.293 16.524,15.997 C15.820,16.815 15.112,17.516 14.348,18.283 C12.666,19.975 12.645,22.694 14.339,24.375 C15.789,25.814 17.357,27.036 17.772,29.843 C17.785,29.927 17.857,29.992 17.943,29.992 C18.372,29.992 18.720,30.334 18.720,30.756 L18.720,32.691 C18.720,33.113 18.372,33.455 17.943,33.455 L15.975,33.455 C15.546,33.455 15.198,33.113 15.198,32.691 L15.198,30.756 C15.198,30.334 15.546,29.992 15.975,29.992 C16.107,29.992 16.206,29.867 16.174,29.741 C15.493,27.091 13.832,26.499 12.253,24.587 C11.872,24.127 11.112,24.433 11.159,25.024 C11.583,30.422 11.889,35.054 10.982,40.667 C10.908,41.124 11.261,41.542 11.731,41.564 C12.338,41.593 12.668,42.276 12.307,42.756 L10.603,45.024 C10.280,45.453 9.618,45.422 9.338,44.965 L7.863,42.547 C7.550,42.034 7.944,41.386 8.552,41.415 C9.125,41.442 9.615,41.017 9.668,40.455 C10.260,34.147 9.896,29.244 9.576,26.116 C9.472,25.087 8.140,24.705 7.496,25.522 C5.902,27.545 4.560,29.567 3.596,31.929 C3.487,32.197 3.514,32.511 3.692,32.741 C3.953,33.078 4.111,33.495 4.111,33.952 C4.111,35.069 3.188,35.976 2.051,35.974 C0.964,35.973 0.030,35.083 -0.003,34.014 C-0.031,33.091 0.572,32.309 1.412,32.039 C1.654,31.961 1.861,31.798 1.971,31.572 C3.419,28.606 4.078,27.150 6.061,24.718 C9.615,20.359 9.952,16.447 9.503,11.292 C9.458,10.773 9.210,10.288 8.805,9.952 C8.360,9.583 8.076,9.033 8.076,8.415 C8.076,7.155 9.249,6.164 10.579,6.438 C11.367,6.601 11.997,7.235 12.150,8.011 C12.270,8.618 12.113,9.182 11.783,9.614 C11.408,10.105 11.196,10.699 11.266,11.309 C11.485,13.206 11.659,14.895 11.502,16.771 C11.435,17.571 12.417,18.025 12.991,17.453 C17.831,12.627 18.641,10.123 18.485,5.328 C18.468,4.784 18.268,4.248 17.883,3.857 C17.527,3.496 17.307,3.006 17.307,2.463 C17.307,1.203 18.479,0.212 19.809,0.487 C20.609,0.651 21.245,1.302 21.387,2.094 C21.506,2.751 21.301,3.360 20.903,3.798 C20.481,4.264 20.294,4.890 20.316,5.513 C20.378,7.221 20.240,8.836 19.913,10.319 C19.414,12.576 19.707,14.914 20.736,16.990 C21.510,18.553 22.066,20.555 22.860,21.322 C22.908,21.369 23.016,21.602 23.405,21.656 C24.530,21.810 25.268,22.738 25.268,23.674 C25.268,25.012 23.945,26.047 22.515,25.584 Z"/>
</svg>